<?xml version="1.0" encoding="UTF-8" standalone="no"?>
<!DOCTYPE svg PUBLIC "-//W3C//DTD SVG 1.1//EN" "http://www.w3.org/Graphics/SVG/1.1/DTD/svg11.dtd">
<svg width="100%" height="100%" viewBox="0 0 89 177" version="1.1" xmlns="http://www.w3.org/2000/svg" xmlns:xlink="http://www.w3.org/1999/xlink" xml:space="preserve" xmlns:serif="http://www.serif.com/" style="fill-rule:evenodd;clip-rule:evenodd;stroke-linejoin:round;stroke-miterlimit:2;">
    <g transform="matrix(1,0,0,1,-556,-250)">
        <g id="candy" transform="matrix(0.930264,0,0,0.969069,564.027,85.5232)">
            <rect x="-8.462" y="169.918" width="95.111" height="181.438" style="fill:none;"/>
            <g transform="matrix(1.07496,0,0,1.03192,-294.942,-295.79)">
                <path d="M335.985,501.183L352.257,500.428C352.088,474.598 334.12,452.295 306.924,453.759C282.699,455.064 270.449,474.24 270.312,501.651L268.64,624.609L285.763,621.551L287.033,504.808C287.547,479.209 296.236,470.295 308.919,470.19C328.23,470.03 333.396,480.858 335.985,501.183Z" style="fill:rgb(232,93,77);"/>
                <path d="M286.232,578.407L285.997,600.055L269.081,592.192L269.376,570.515L286.232,578.407ZM286.719,533.65L286.484,555.309L269.689,547.502L269.983,525.815L286.719,533.65ZM273.252,480.841C271.331,486.997 270.35,494.003 270.312,501.651L270.301,502.482L286.941,513.272L287.033,504.808C287.142,499.394 287.616,494.726 288.417,490.732L273.252,480.841ZM335.444,462.804L323.847,473.577C329.217,476.897 332.224,482.617 334.136,490.575L347.374,478.344C344.518,472.262 340.479,466.935 335.444,462.804ZM305.399,453.867C298.08,454.502 291.902,456.819 286.87,460.535L294.848,476.122C298.527,471.989 303.336,470.236 308.919,470.19C310.663,470.176 312.291,470.251 313.813,470.415L305.399,453.867Z" style="fill:white;"/>
            </g>
        </g>
    </g>
</svg>
