<?xml version="1.0" encoding="UTF-8" standalone="no"?>
<!DOCTYPE svg PUBLIC "-//W3C//DTD SVG 1.1//EN" "http://www.w3.org/Graphics/SVG/1.1/DTD/svg11.dtd">
<svg width="100%" height="100%" viewBox="0 0 400 301" version="1.1" xmlns="http://www.w3.org/2000/svg" xmlns:xlink="http://www.w3.org/1999/xlink" xml:space="preserve" xmlns:serif="http://www.serif.com/" style="fill-rule:evenodd;clip-rule:evenodd;stroke-linejoin:round;stroke-miterlimit:2;">
    <g transform="matrix(1,0,0,1,0,-586)">
        <g id="treepart2" transform="matrix(0.881935,0,0,0.944908,93.0926,114.497)">
            <rect x="-105.555" y="499.74" width="453.548" height="317.491" style="fill:none;"/>
            <clipPath id="_clip1">
                <rect x="-105.555" y="499.74" width="453.548" height="317.491"/>
            </clipPath>
            <g clip-path="url(#_clip1)">
                <g transform="matrix(0.604054,0,0,0.672595,-459.429,281.027)">
                    <path d="M1010.12,664.315C1010.12,700.527 980.062,756.331 921.567,782.535C889.379,750.347 865.491,708.637 882.496,665.888L880.339,672.221C836.928,711.53 804.201,719.484 744.953,727.561C786.903,700.356 800.991,674.704 806.565,653.291C798.3,661.349 776.419,666.329 767.656,667.469C709.467,675.036 691.021,667.724 648.886,647.124C648.886,647.124 706.899,637.393 732.391,601.102L734.232,600.104C689.808,614.912 613.032,607.796 585.832,567.123L587.122,568.13C615.028,574.757 693.31,553.356 712.772,545.801C808.252,508.733 903.464,438.047 954.699,334.889C954.699,334.889 957.762,329.275 959.782,325.177C959.637,325.056 982.733,395.55 1035.87,447.731C1105.98,516.581 1234.62,564.071 1336.67,564.071L1334.96,566.559C1326.04,585.259 1302.64,600.284 1288.97,605.635C1276.36,610.572 1235.52,621.951 1197.31,611.715C1216.33,639.772 1237.17,648.581 1270.36,661.371C1272.06,661.746 1279.08,664.106 1282.32,665.68C1269.93,674.753 1240.16,678.648 1230.15,679.337C1196.82,681.631 1162.62,673.295 1132.28,661.919C1123.92,658.785 1094.03,644.419 1089.74,637.949C1092.14,653.481 1096.31,665.178 1105.55,674.11C1117.36,685.528 1141.26,705.705 1151.5,705.705C1150.2,706.042 1081.62,710.043 1050.8,697.772C1028.76,688.999 1008.7,666.565 1002.72,651.009" style="fill:rgb(105,153,64);"/>
                </g>
            </g>
        </g>
    </g>
</svg>
